<?xml version="1.0" encoding="UTF-8"?>
<svg id="Layer_4_R1_copy_2" data-name="Layer 4 R1 copy 2" xmlns="http://www.w3.org/2000/svg" viewBox="0 0 1878.93 702">
  <defs>
    <style>
      .cls-1 {
        fill: #8ac939;
      }

      .cls-2 {
        fill: #042c66;
      }

      .cls-3 {
        fill: #028fb5;
      }
    </style>
  </defs>
  <g>
    <polygon class="cls-2" points="226.38 0 0 582.64 126.98 582.64 328.96 0 226.38 0"/>
    <path class="cls-3" d="M362.64,421.14c0,91.35,77.21,161.5,156.23,161.5h33.27l-115.48-297.21c-31.88,43.39-74.03,78.88-74.03,135.71"/>
    <path class="cls-3" d="M409.22,217.36c.28-.14.42-.42.69-.55L332.7,0h-106.74l88.72,279.19c32.02-19.13,61.13-38.54,94.54-61.83"/>
    <path class="cls-1" d="M461.62,130.03c-.83.28-1.25.97-1.11,1.8,10.12,84.7-69.31,75.69-196.16,157.48-54.9,35.35-100.09,84.28-126.29,142.78-28.7,64.18-32.16,129.48-9.98,188.67,10.81,29.67,26.62,56.7,47.13,80.68.28.42.83.56,1.25.56.28,0,.55-.14.83-.28.69-.42.97-1.25.55-2.08-50.6-112.15-32.44-235.11,49.63-325.08,35.63-41.03,79.99-72.92,135.99-107.43,63.49-39.09,128.64-74.72,99.95-136.41-.28-.55-.83-.97-1.52-.97,0,.14-.14.14-.28.28Z"/>
  </g>
  <g>
    <path class="cls-2" d="M1462.64,127.12c6.24,0,11.64-2.08,16.08-6.24,4.44-4.16,6.65-9.29,6.65-15.11s-2.22-10.95-6.65-15.11c-4.44-4.16-9.84-6.24-16.22-6.24s-11.51,2.08-16.08,6.24c-4.44,4.16-6.79,9.29-6.79,15.11s2.22,10.95,6.79,15.11c4.57,4.16,9.98,6.24,16.22,6.24"/>
    <path class="cls-2" d="M741.92,252.99l14.97,46.3h46.02l-70.14-203.36h-55.45l-70.14,203.36h46.02l15.11-46.3h73.61ZM706.16,142.51l24.95,76.94h-51.57l25.09-76.94h1.52Z"/>
    <path class="cls-2" d="M938.91,153.6c-9.43-5.82-19.68-8.73-30.77-8.73-8.59,0-15.66,1.39-21.35,4.3-5.68,2.91-10.4,6.52-13.86,10.67-3.6,4.3-6.24,8.46-8.04,12.61h-2.08v-25.65h-41.73v209.6h42.28v-81.65h1.25c1.94,4.16,4.71,8.46,8.32,12.61,3.6,4.16,8.32,7.62,14,10.26,5.68,2.77,12.75,4.02,20.93,4.02,11.64,0,22.04-3.05,31.47-9.01,9.43-5.96,16.77-14.83,22.18-26.48,5.41-11.64,8.18-26.06,8.18-42.97s-2.77-32.02-8.46-43.67c-5.41-11.51-13.03-20.24-22.32-25.92M922.97,246.61c-2.5,6.79-6.1,12.06-10.81,15.94-4.71,3.74-10.54,5.68-17.47,5.68s-12.61-1.8-17.33-5.55c-4.71-3.74-8.46-9.01-10.95-15.66-2.5-6.79-3.74-14.69-3.74-23.7s1.25-16.91,3.74-23.57c2.5-6.65,6.1-11.78,10.81-15.53,4.71-3.6,10.54-5.41,17.47-5.41s12.75,1.94,17.61,5.68c4.71,3.74,8.32,9.01,10.81,15.66,2.5,6.65,3.74,14.42,3.74,23.29-.14,8.46-1.39,16.36-3.88,23.15"/>
    <path class="cls-2" d="M1115.66,153.6c-9.43-5.82-19.68-8.73-30.77-8.73-8.59,0-15.66,1.39-21.35,4.3-5.68,2.91-10.4,6.52-13.86,10.67-3.6,4.3-6.24,8.46-8.04,12.61h-1.94v-25.65h-41.73v209.6h42.28v-81.65h1.25c1.94,4.16,4.71,8.46,8.32,12.61,3.6,4.16,8.32,7.62,14,10.26,5.68,2.77,12.75,4.02,20.93,4.02,11.64,0,22.04-3.05,31.47-9.01,9.43-5.96,16.77-14.83,22.18-26.48,5.41-11.64,8.18-26.06,8.18-42.97s-2.77-32.02-8.46-43.67c-5.54-11.51-13.03-20.24-22.46-25.92M1099.72,246.61c-2.5,6.79-6.1,12.06-10.81,15.94-4.71,3.74-10.54,5.68-17.47,5.68s-12.61-1.8-17.33-5.55c-4.71-3.74-8.46-9.01-10.95-15.66-2.5-6.79-3.74-14.69-3.74-23.7s1.25-16.91,3.74-23.57c2.5-6.65,6.1-11.78,10.81-15.53,4.71-3.6,10.54-5.41,17.47-5.41s12.75,1.94,17.61,5.68c4.71,3.74,8.32,9.01,10.81,15.66,2.5,6.65,3.74,14.42,3.74,23.29-.14,8.46-1.39,16.36-3.88,23.15"/>
    <path class="cls-2" d="M1248.32,144.73c-8.59,0-16.08,2.36-22.6,7.35-6.52,4.85-11.23,12.06-14,21.49h-1.52v-26.62h-41.03v152.49h42.28v-86.23c0-6.24,1.39-11.64,4.16-16.5,2.77-4.71,6.65-8.46,11.51-11.23,4.85-2.63,10.4-4.02,16.64-4.02,2.91,0,6.1.28,9.57.69,3.47.42,6.24.97,8.18,1.52v-37.57c-1.8-.42-4.02-.83-6.52-1.11-2.22-.14-4.57-.28-6.65-.28"/>
    <path class="cls-2" d="M1388.89,157.06c-6.1-4.16-12.89-7.21-20.79-9.29-7.76-1.94-15.94-3.05-24.4-3.05-12.2,0-22.87,1.8-32.16,5.55-9.29,3.74-16.77,8.87-22.6,15.66-5.82,6.79-9.7,14.83-11.78,24.12l39.09,3.19c1.39-4.99,4.44-9.15,8.87-12.61,4.57-3.33,10.54-4.99,18.16-4.99,7.21,0,12.75,1.66,16.77,5.13,3.88,3.47,5.96,8.32,5.96,14.56v.55c0,3.19-1.25,5.68-3.74,7.35-2.5,1.66-6.38,2.91-11.78,3.74-5.41.83-12.61,1.66-21.49,2.63-7.49.69-14.69,1.94-21.63,3.74-6.79,1.8-12.89,4.44-18.3,7.9-5.41,3.47-9.57,8.18-12.75,13.86-3.19,5.82-4.71,12.89-4.71,21.35,0,10.12,2.22,18.44,6.65,25.23,4.44,6.79,10.4,11.78,18.02,15.25,7.62,3.47,16.36,5.13,26.06,5.13,7.49,0,14.14-.97,19.96-3.05,5.82-1.94,10.67-4.85,14.83-8.46,4.16-3.6,7.35-7.76,9.84-12.61h1.25v21.07h40.06v-102.86c0-9.01-1.8-16.91-5.27-23.43-3.33-6.1-8.18-11.51-14.14-15.66M1366.43,244.81c0,5.41-1.39,10.12-4.02,14.42-2.63,4.3-6.52,7.62-11.23,10.12-4.71,2.5-10.26,3.74-16.5,3.74s-11.78-1.52-16.08-4.57c-4.16-3.05-6.38-7.35-6.38-13.17,0-4.02.97-7.35,3.05-9.98,2.08-2.63,4.99-4.85,8.59-6.38,3.74-1.52,8.04-2.77,13.03-3.47,2.36-.28,4.85-.69,7.76-1.11,2.77-.42,5.68-.97,8.59-1.52,2.91-.55,5.41-1.25,7.62-1.94,2.36-.69,4.02-1.52,5.41-2.36v16.22h.14Z"/>
    <rect class="cls-2" x="1441.29" y="146.8" width="42.28" height="152.49"/>
    <path class="cls-2" d="M1636.75,225.41c-7.35-6.79-18.3-11.64-33.13-14.69l-27.59-5.55c-7.07-1.52-12.06-3.47-14.97-6.1-2.91-2.5-4.44-5.55-4.44-9.29,0-4.57,2.22-8.18,6.79-10.95,4.44-2.77,9.98-4.16,16.5-4.16,4.85,0,9.15.83,12.61,2.5,3.47,1.66,6.38,3.74,8.59,6.52,2.22,2.63,3.6,5.68,4.3,9.01l38.68-2.36c-1.8-14-8.32-25.09-19.41-33.27-11.09-8.18-26.2-12.2-45.47-12.2-13.03,0-24.4,1.94-34.1,5.82-9.7,3.88-17.19,9.29-22.46,16.36-5.27,7.07-8.04,15.53-8.04,25.37,0,11.37,3.6,20.79,10.81,28.14,7.21,7.35,18.3,12.48,33.13,15.53l26.34,5.27c6.65,1.39,11.51,3.19,14.69,5.68,3.19,2.5,4.85,5.68,4.85,9.43-.14,4.57-2.36,8.32-6.93,11.23-4.57,2.91-10.54,4.3-17.88,4.3s-13.72-1.66-18.58-4.85c-4.85-3.19-7.9-7.9-9.15-14l-41.59,2.22c2.08,14.56,9.01,26.06,21.07,34.52,11.92,8.46,28,12.61,48.24,12.61,13.17,0,24.95-2.08,35.07-6.24,10.12-4.16,18.16-10.12,23.98-17.61,5.82-7.49,8.73-16.36,8.73-26.34.28-11.23-3.33-20.1-10.67-26.89"/>
    <path class="cls-2" d="M1784.11,157.06c-6.1-4.16-13.03-7.21-20.79-9.29-7.76-1.94-15.94-3.05-24.4-3.05-12.2,0-22.87,1.8-32.16,5.55-9.29,3.74-16.77,8.87-22.6,15.66-5.82,6.79-9.7,14.83-11.78,24.12l39.09,3.19c1.39-4.99,4.44-9.15,8.87-12.61,4.57-3.33,10.54-4.99,18.16-4.99,7.21,0,12.75,1.66,16.77,5.13,3.88,3.47,5.96,8.32,5.96,14.56v.55c0,3.19-1.25,5.68-3.74,7.35-2.5,1.66-6.38,2.91-11.78,3.74-5.41.83-12.61,1.66-21.49,2.63-7.49.69-14.69,1.94-21.63,3.74-6.79,1.8-12.89,4.44-18.3,7.9-5.41,3.47-9.57,8.18-12.75,13.86-3.19,5.82-4.71,12.89-4.71,21.35,0,10.12,2.22,18.44,6.65,25.23,4.44,6.65,10.4,11.78,18.02,15.25,7.62,3.47,16.36,5.13,26.06,5.13,7.49,0,14.14-.97,19.96-3.05,5.68-1.94,10.67-4.85,14.83-8.46,4.16-3.6,7.35-7.76,9.84-12.61h1.25v21.07h40.06v-102.86c0-9.01-1.8-16.91-5.27-23.43-3.33-6.1-8.04-11.51-14.14-15.66M1761.79,244.81c0,5.41-1.39,10.12-4.02,14.42-2.77,4.3-6.52,7.62-11.23,10.12-4.71,2.5-10.26,3.74-16.5,3.74s-11.78-1.52-16.08-4.57c-4.16-3.05-6.24-7.35-6.24-13.17,0-4.02.97-7.35,3.05-9.98,2.08-2.63,4.99-4.85,8.59-6.38,3.74-1.52,8.04-2.77,13.03-3.47,2.36-.28,4.85-.69,7.76-1.11,2.77-.42,5.68-.97,8.59-1.52,2.91-.55,5.41-1.25,7.62-1.94,2.36-.69,4.02-1.52,5.41-2.36v16.22Z"/>
    <rect class="cls-2" x="1836.65" y="96.07" width="42.28" height="203.36"/>
    <rect class="cls-2" x="617.02" y="379.28" width="24.68" height="203.36"/>
    <path class="cls-2" d="M791,434.45c-7.76-4.16-16.77-6.24-27.03-6.24-11.51,0-20.93,2.36-28.14,7.07-7.21,4.71-12.75,10.95-16.22,18.71h-1.94v-23.84h-22.6v152.49h23.43v-91.77c0-8.87,1.66-16.36,5.13-22.6,3.33-6.24,8.04-10.95,13.86-14.28,5.82-3.19,12.48-4.85,19.96-4.85,10.81,0,19.41,3.33,25.65,10.12,6.24,6.65,9.29,16.08,9.29,28v95.24h23.43v-96.9c0-13.03-2.08-23.7-6.52-32.16-4.57-8.46-10.54-14.83-18.3-18.99"/>
    <path class="cls-2" d="M918.81,498.77l-22.6-5.55c-9.01-2.22-15.66-5.13-19.82-8.46-4.3-3.33-6.38-7.9-6.38-13.86,0-6.52,3.05-11.92,9.29-16.22,6.24-4.3,14-6.38,23.29-6.38,6.79,0,12.48,1.11,16.77,3.33,4.44,2.22,7.76,4.99,10.4,8.32,2.5,3.33,4.44,6.79,5.82,10.26l21.07-5.96c-3.6-10.81-9.84-19.55-18.44-26.2-8.59-6.65-20.52-9.98-35.63-9.98-10.67,0-20.24,1.94-28.7,5.68-8.46,3.74-15.11,9.01-19.96,15.53-4.85,6.65-7.35,14.28-7.35,22.87,0,10.54,3.33,19.27,9.7,26.2,6.52,6.93,16.77,12.2,30.77,15.39l25.37,5.96c7.62,1.8,13.31,4.44,17.05,8.04,3.74,3.6,5.55,8.04,5.55,13.31,0,6.52-3.19,12.2-9.7,16.77-6.52,4.71-15.11,7.07-26.06,7.07-9.57,0-17.33-2.08-23.29-6.1-5.96-4.16-9.98-10.26-12.06-18.44l-22.18,5.55c2.77,12.89,9.15,22.87,19.41,29.53,10.26,6.79,23.01,10.12,38.68,10.12,11.78,0,22.18-1.94,31.19-5.96,8.87-4.02,15.94-9.43,20.93-16.22,4.99-6.93,7.49-14.69,7.49-23.43,0-10.67-3.33-19.41-9.98-26.2-6.79-6.52-16.91-11.64-30.64-14.97"/>
    <path class="cls-2" d="M1050.78,561.57c-1.66.28-3.74.42-6.38.42-3.47,0-6.65-.55-9.84-1.66-3.05-1.11-5.55-3.33-7.49-6.52-1.94-3.33-2.91-8.18-2.91-14.83v-89h32.58v-19.82h-32.58v-36.46h-23.43v36.46h-23.01v19.82h23.01v95.37c0,8.87,2.08,16.22,6.24,22.04,4.16,5.82,9.43,10.12,15.66,13.03,6.38,2.91,12.75,4.3,19.41,4.3,4.3,0,7.9-.28,10.81-.97,2.91-.55,5.13-1.25,6.65-1.8l-4.71-21.07c-.97.14-2.36.28-4.02.69"/>
    <path class="cls-2" d="M1111.08,372.9c-4.57,0-8.46,1.52-11.78,4.71-3.33,3.19-4.85,6.79-4.85,11.23s1.66,8.04,4.85,11.23c3.33,3.05,7.21,4.71,11.78,4.71s8.46-1.52,11.78-4.71c3.33-3.05,4.85-6.79,4.85-11.23s-1.66-8.04-4.85-11.23c-3.33-3.05-7.21-4.71-11.78-4.71"/>
    <rect class="cls-2" x="1099.16" y="430.16" width="23.43" height="152.49"/>
    <path class="cls-2" d="M1232.8,561.57c-1.66.28-3.74.42-6.38.42-3.47,0-6.65-.55-9.7-1.66-3.05-1.11-5.55-3.33-7.49-6.52-1.94-3.33-2.91-8.18-2.91-14.83v-89h32.58v-19.82h-32.58v-36.46h-23.43v36.46h-23.01v19.82h23.01v95.37c0,8.87,2.08,16.22,6.24,22.04,4.16,5.82,9.43,10.12,15.66,13.03,6.38,2.91,12.75,4.3,19.41,4.3,4.44,0,7.9-.28,10.81-.97,2.91-.55,4.99-1.25,6.65-1.8l-4.71-21.07c-1.25.14-2.5.28-4.16.69"/>
    <path class="cls-2" d="M1366.02,520.26c0,9.57-2.08,17.33-6.24,23.57-4.16,6.1-9.29,10.67-15.25,13.72-6.1,2.91-12.06,4.44-17.88,4.44-9.7,0-17.74-3.33-23.98-9.98-6.24-6.65-9.43-15.53-9.43-26.62v-95.37h-23.43v96.9c0,13.03,2.08,23.7,6.38,32.16,4.16,8.46,10.12,14.83,17.47,18.99,7.35,4.16,15.94,6.24,25.37,6.24,11.51,0,21.07-2.63,28.56-8.04,7.62-5.41,13.17-11.92,16.64-19.68h1.52v25.78h23.43v-152.49h-23.43v90.38h.28Z"/>
    <path class="cls-2" d="M1482.88,561.57c-1.66.28-3.74.42-6.38.42-3.47,0-6.65-.55-9.84-1.66-3.05-1.11-5.55-3.33-7.49-6.52-1.94-3.33-2.91-8.18-2.91-14.83v-89h32.58v-19.82h-32.58v-36.46h-23.43v36.46h-23.01v19.82h23.01v95.37c0,8.87,2.08,16.22,6.24,22.04,4.16,5.82,9.43,10.12,15.66,13.03,6.24,2.91,12.75,4.3,19.41,4.3,4.44,0,8.04-.28,10.81-.97,2.91-.55,5.13-1.25,6.65-1.8l-4.71-21.07c-1.11.14-2.36.28-4.02.69"/>
    <path class="cls-2" d="M1620.67,444.99c-6.38-5.96-13.45-10.26-21.21-12.89-7.76-2.63-15.53-4.02-23.57-4.02-13.72,0-25.78,3.33-36.04,10.12-10.26,6.65-18.3,16.08-23.98,28-5.68,11.92-8.59,25.65-8.59,41.31s2.91,29.25,8.59,41.03c5.68,11.78,13.86,20.93,24.54,27.45,10.67,6.52,23.29,9.7,37.98,9.7,10.26,0,19.68-1.66,27.86-4.85,8.32-3.19,15.25-7.76,20.79-13.45,5.54-5.82,9.57-12.48,12.06-20.24l-22.6-6.38c-1.94,5.27-4.71,9.7-8.46,13.31-3.6,3.6-7.9,6.24-12.89,7.9-4.99,1.8-10.54,2.63-16.77,2.63-9.43,0-17.74-2.08-24.95-6.24-7.21-4.16-12.75-10.12-16.77-18.16-3.6-7.21-5.54-15.94-5.96-26.06h110.76v-9.98c0-14.28-1.94-26.2-5.68-35.9-3.74-9.57-8.87-17.33-15.11-23.29M1530.84,494.06c.42-7.07,2.22-13.72,5.41-20.1,3.6-7.35,8.87-13.31,15.66-17.88,6.79-4.57,14.83-6.93,24.12-6.93,8.46,0,15.8,1.94,22.04,5.82,6.24,3.88,11.09,9.29,14.56,15.94,3.33,6.79,5.13,14.42,5.13,23.01h-86.92v.14Z"/>
    <path class="cls-2" d="M1679.2,433.37c-2.75,0-5.34-.52-7.76-1.57-2.42-1.04-4.54-2.48-6.38-4.31-1.83-1.83-3.27-3.95-4.31-6.38-1.04-2.41-1.57-5-1.57-7.75s.52-5.34,1.57-7.75c1.04-2.42,2.48-4.54,4.31-6.38,1.83-1.83,3.96-3.28,6.38-4.31,2.42-1.05,5-1.57,7.76-1.57s5.37.52,7.79,1.57c2.42,1.04,4.54,2.48,6.38,4.31,1.83,1.83,3.27,3.95,4.3,6.38,1.03,2.41,1.55,5,1.55,7.75s-.52,5.34-1.55,7.75c-1.03,2.42-2.46,4.54-4.3,6.38-1.83,1.83-3.96,3.28-6.38,4.31-2.42,1.05-5.01,1.57-7.79,1.57ZM1679.2,429.62c3,0,5.72-.74,8.18-2.19,2.45-1.47,4.42-3.43,5.88-5.88,1.46-2.46,2.2-5.18,2.2-8.18s-.74-5.72-2.2-8.18c-1.46-2.45-3.43-4.41-5.88-5.88-2.45-1.46-5.18-2.19-8.18-2.19s-5.7.74-8.17,2.19c-2.46,1.47-4.42,3.43-5.88,5.88-1.45,2.46-2.18,5.18-2.18,8.18s.73,5.72,2.18,8.18c1.46,2.45,3.42,4.41,5.88,5.88,2.46,1.46,5.18,2.19,8.17,2.19ZM1672.32,422.47v-18.43h8.87c.93,0,1.86.23,2.75.67.89.45,1.63,1.08,2.2,1.94.57.84.86,1.89.86,3.12s-.3,2.35-.88,3.25c-.58.9-1.33,1.6-2.25,2.1-.92.49-1.87.74-2.86.74h-6.84v-2.58h5.98c.87,0,1.64-.3,2.31-.9.66-.61.99-1.47.99-2.6s-.33-1.96-.99-2.46c-.67-.49-1.41-.74-2.24-.74h-4.61v15.88h-3.3ZM1684.11,422.47l-4.5-8.59h3.57l4.57,8.59h-3.65Z"/>
  </g>
</svg>